<?xml version="1.0" standalone="no"?>
<!DOCTYPE svg PUBLIC "-//W3C//DTD SVG 20010904//EN"
        "http://www.w3.org/TR/2001/REC-SVG-20010904/DTD/svg10.dtd">
<svg version="1.0" xmlns="http://www.w3.org/2000/svg"
     width="454.000000pt" height="329.000000pt" viewBox="0 0 454.000000 329.000000"
     preserveAspectRatio="xMidYMid meet">

    <g transform="translate(0.000000,329.000000) scale(0.100000,-0.100000)"
       fill="#000000" stroke="none">
        <path d="M2946 3271 c-23 -25 -13 -59 20 -67 30 -8 54 11 54 40 0 45 -44 61
-74 27z"/>
        <path d="M3142 3278 c-7 -7 -12 -21 -12 -33 0 -12 5 -26 12 -33 27 -27 78 -7
78 29 0 39 -52 63 -78 37z"/>
        <path d="M880 3107 c0 -4 -235 -675 -245 -700 -9 -21 -36 -37 -64 -37 -11 0
-23 -4 -26 -10 -4 -6 35 -10 112 -9 110 1 115 2 71 13 -74 17 -75 21 -38 130
l32 96 118 0 117 0 39 -107 c21 -60 38 -110 38 -113 1 -3 -19 -8 -44 -11 -25
-3 27 -6 115 -6 88 0 147 2 131 6 -28 6 -34 19 -169 379 -130 346 -141 372
-163 372 -13 0 -24 -1 -24 -3z m17 -355 l51 -137 -54 -3 c-30 -2 -78 -2 -107
0 l-54 3 51 142 c27 79 52 140 55 137 3 -3 29 -67 58 -142z"/>
        <path d="M3589 3096 c-93 -25 -143 -85 -155 -190 -6 -48 -3 -60 20 -101 38
-63 121 -121 249 -174 58 -24 118 -54 133 -68 24 -22 26 -30 22 -78 -7 -84
-58 -125 -155 -125 -76 0 -124 18 -169 64 -40 39 -74 117 -74 168 0 10 -4 18
-10 18 -6 0 -10 -52 -10 -135 0 -83 4 -135 10 -135 6 0 10 6 10 13 1 38 16 39
107 8 96 -33 144 -38 207 -20 66 18 113 57 142 116 23 46 26 62 21 110 -11
107 -82 173 -245 232 -126 46 -178 80 -191 126 -44 160 215 227 322 84 11 -15
27 -51 37 -80 30 -87 40 -74 40 50 0 102 -10 141 -23 91 -7 -27 -24 -25 -99
10 -69 33 -114 37 -189 16z"/>
        <path d="M1285 3090 c3 -5 28 -10 56 -10 l49 0 0 -360 0 -359 -57 -4 c-32 -2
80 -4 250 -5 l307 -2 0 119 c0 128 -13 167 -25 73 -8 -68 -24 -107 -57 -145
-24 -27 -25 -28 -159 -30 l-134 -2 -3 358 -2 357 50 0 c27 0 50 5 50 10 0 6
-62 10 -166 10 -107 0 -163 -3 -159 -10z"/>
        <path d="M1994 3091 c4 -6 29 -11 57 -11 l49 0 -2 -357 -3 -358 -55 -6 c-30
-3 19 -6 110 -6 91 0 145 3 120 6 l-45 6 -3 169 c-2 158 -1 168 15 160 10 -4
44 -10 75 -12 120 -8 227 37 275 114 32 54 32 147 0 195 -26 39 -75 74 -126
90 -49 16 -476 25 -467 10z m387 -34 c67 -36 90 -83 87 -179 -3 -82 -17 -111
-70 -151 -33 -25 -109 -33 -148 -17 l-30 12 0 142 c0 77 3 158 6 179 l7 37 52
0 c35 0 66 -8 96 -23z"/>
        <path d="M2670 3090 c0 -5 20 -10 45 -10 l45 0 0 -359 0 -360 -47 -4 c-27 -2
102 -4 285 -5 l332 -2 0 110 c0 113 -13 146 -24 63 -8 -61 -36 -107 -78 -130
-26 -14 -63 -18 -180 -21 l-148 -4 0 176 0 176 48 0 c98 0 135 -23 147 -92 14
-79 25 -33 25 102 0 77 -4 140 -9 140 -5 0 -14 -20 -20 -45 -14 -56 -37 -71
-123 -80 l-68 -7 0 171 0 171 110 0 c100 0 114 -2 149 -24 35 -23 81 -92 81
-124 0 -7 7 -12 15 -12 17 0 19 38 9 128 l-7 52 -293 0 c-189 0 -294 -4 -294
-10z"/>
        <path d="M255 1807 c-66 -22 -99 -43 -144 -92 -140 -152 -147 -417 -15 -564
65 -73 139 -106 234 -106 68 0 81 3 147 39 60 33 74 37 87 27 9 -8 16 -22 16
-32 0 -10 5 -21 10 -24 6 -4 10 42 10 129 0 128 -10 173 -24 106 -11 -57 -56
-138 -98 -175 -38 -35 -44 -37 -92 -33 -29 2 -77 17 -111 34 -49 24 -63 37
-84 77 -53 104 -52 363 3 483 27 58 63 88 127 105 72 19 116 6 174 -54 46 -47
57 -68 81 -154 2 -7 8 -13 14 -13 6 0 10 43 10 115 0 72 -4 115 -10 115 -6 0
-13 -7 -16 -15 -9 -22 -52 -18 -114 11 -65 31 -149 39 -205 21z"/>
        <path d="M1005 1803 c-3 -10 -58 -166 -121 -348 -64 -181 -122 -340 -130 -352
-9 -15 -29 -25 -54 -29 -72 -12 -31 -24 80 -24 112 0 155 13 74 23 -71 8 -73
13 -35 127 l33 101 116 -3 116 -3 38 -100 c21 -55 38 -106 38 -112 0 -8 -15
-13 -40 -13 -22 0 -40 -4 -40 -10 0 -6 58 -10 155 -10 97 0 155 4 155 10 0 6
-12 10 -27 10 -28 0 -31 7 -168 375 -124 332 -142 375 -161 375 -12 0 -25 -8
-29 -17z m15 -333 c29 -77 50 -143 48 -146 -3 -2 -50 -3 -105 -2 l-100 3 50
143 c27 78 51 142 52 142 1 0 26 -63 55 -140z"/>
        <path d="M3485 1803 c-3 -10 -58 -166 -122 -348 -63 -181 -121 -340 -129 -352
-9 -15 -29 -25 -54 -29 -72 -12 -31 -24 80 -24 112 0 155 13 74 23 -76 8 -77
15 -22 170 l21 58 116 -3 116 -3 37 -100 c20 -55 37 -106 38 -112 0 -8 -14
-13 -40 -13 -22 0 -40 -4 -40 -10 0 -6 58 -10 155 -10 97 0 155 4 155 10 0 6
-12 10 -28 10 -27 0 -29 6 -167 375 -124 332 -142 375 -161 375 -12 0 -25 -8
-29 -17z m15 -333 c29 -77 50 -143 48 -146 -3 -2 -50 -3 -105 -2 l-100 3 50
143 c27 78 51 142 52 142 1 0 26 -63 55 -140z"/>
        <path d="M1410 1800 c0 -6 28 -10 65 -10 l65 0 0 -360 0 -360 -65 0 c-37 0
-65 -4 -65 -10 0 -6 58 -10 155 -10 97 0 155 4 155 10 0 6 -18 10 -40 10 l-40
0 0 163 0 164 79 -5 c189 -11 311 73 311 213 0 101 -77 173 -210 194 -84 14
-410 15 -410 1z m353 -21 c54 -15 105 -63 118 -112 37 -138 -34 -257 -153
-257 -90 0 -88 -5 -88 200 l0 180 43 0 c23 0 59 -5 80 -11z"/>
        <path d="M2095 1800 c-4 -6 15 -10 49 -10 l56 0 0 -360 0 -360 -56 0 c-34 0
-53 -4 -49 -10 4 -6 70 -10 166 -10 99 0 159 4 159 10 0 6 -27 10 -60 10 l-60
0 0 360 0 360 60 0 c33 0 60 4 60 10 0 6 -60 10 -159 10 -96 0 -162 -4 -166
-10z"/>
        <path d="M2480 1695 c0 -117 14 -157 22 -62 9 110 51 146 178 154 l80 6 0
-362 0 -361 -60 0 c-33 0 -60 -4 -60 -10 0 -14 327 -14 335 0 4 6 -17 10 -54
10 l-61 0 0 361 0 362 80 -6 c129 -10 161 -37 174 -149 4 -32 12 -58 17 -58
11 0 11 48 3 153 l-7 77 -323 0 -324 0 0 -115z"/>
        <path d="M3890 1800 c0 -5 25 -10 55 -10 l55 0 0 -360 0 -360 -55 0 c-30 0
-55 -4 -55 -10 0 -6 115 -10 325 -10 l325 0 0 125 c0 69 -4 125 -8 125 -4 0
-13 -31 -19 -70 -21 -133 -50 -152 -250 -158 l-143 -5 0 362 0 361 45 0 c25 0
45 5 45 10 0 6 -60 10 -160 10 -100 0 -160 -4 -160 -10z"/>
        <path d="M1627 253 c-4 -3 -6 -20 -6 -37 1 -21 3 -24 6 -11 7 30 32 45 76 45
l39 0 -61 -114 c-34 -63 -61 -117 -61 -120 0 -3 10 -6 23 -6 24 0 22 -2 106
153 l52 97 -84 0 c-46 0 -87 -3 -90 -7z"/>
        <path d="M1826 252 c8 -4 13 -47 15 -109 5 -123 12 -134 91 -139 29 -1 40 0
23 3 -52 8 -55 17 -55 133 0 77 4 110 13 113 6 3 -13 6 -43 6 -30 0 -50 -3
-44 -7z"/>
        <path d="M2003 253 c15 -4 17 -17 17 -102 0 -71 -4 -103 -16 -121 l-16 -25 21
24 c18 20 21 36 21 121 0 85 2 99 18 103 9 3 -1 5 -23 5 -22 0 -32 -2 -22 -5z"/>
        <path d="M2088 253 c9 -3 12 -38 12 -124 l0 -119 25 0 c24 0 25 3 25 60 0 57
1 60 25 60 27 0 45 -30 45 -75 0 -30 25 -55 53 -55 15 0 18 3 10 8 -7 5 -17
30 -22 57 -5 27 -16 54 -24 60 -13 9 -12 14 9 32 29 26 31 56 4 83 -17 17 -33
20 -97 19 -43 0 -72 -3 -65 -6z m120 -15 c29 -29 1 -98 -40 -98 -15 0 -18 8
-18 55 0 51 2 55 23 55 13 0 28 -5 35 -12z"/>
        <path d="M2333 253 c16 -4 18 -16 15 -124 -3 -118 -3 -119 20 -119 22 0 22 2
22 119 0 105 2 120 18 124 9 3 -8 5 -38 5 -30 0 -47 -2 -37 -5z"/>
        <path d="M2491 233 c-70 -71 -44 -207 45 -229 18 -5 37 -2 55 8 20 12 30 13
38 5 8 -8 11 1 11 33 l-1 45 -19 -36 c-22 -42 -43 -53 -70 -39 -31 17 -42 49
-42 117 0 78 20 116 60 111 17 -2 35 -15 49 -37 l23 -34 0 34 c0 26 -5 35 -17
37 -10 1 -37 5 -60 8 -38 5 -46 3 -72 -23z"/>
        <path d="M2678 253 c9 -3 12 -38 12 -124 l0 -119 25 0 c24 0 25 3 25 60 l0 60
61 0 61 0 -4 -60 c-3 -57 -2 -60 20 -60 22 0 22 2 22 119 0 105 2 120 18 124
9 3 -8 5 -38 5 -30 0 -47 -2 -37 -5 13 -4 17 -15 17 -59 l0 -54 -60 0 -60 0 0
54 c0 44 4 55 18 59 9 3 -8 5 -38 5 -30 0 -49 -2 -42 -5z"/>
        <path d="M1790 45 c0 -9 -10 -20 -22 -25 -22 -8 -22 -9 5 -9 22 -1 27 3 27 24
0 14 -2 25 -5 25 -3 0 -5 -7 -5 -15z"/>
    </g>
</svg>
