<?xml version="1.0" standalone="no"?>
<!DOCTYPE svg PUBLIC "-//W3C//DTD SVG 20010904//EN"
        "http://www.w3.org/TR/2001/REC-SVG-20010904/DTD/svg10.dtd">
<svg version="1.0" xmlns="http://www.w3.org/2000/svg"
     width="369.000000pt" height="139.000000pt" viewBox="0 0 369.000000 139.000000"
     preserveAspectRatio="xMidYMid meet">

    <g transform="translate(0.000000,139.000000) scale(0.100000,-0.100000)"
       fill="#000000" stroke="none">
        <path d="M784 1383 c-80 -8 -79 -5 -76 -337 4 -316 6 -329 59 -340 15 -3 75
-2 132 3 130 10 131 12 131 136 0 76 -3 95 -18 108 -10 10 -23 17 -28 17 -6 0
-22 13 -37 28 -20 21 -27 38 -27 70 0 69 22 192 34 192 6 0 48 3 92 5 59 4 84
2 91 -7 11 -15 33 -140 33 -190 0 -42 -21 -72 -71 -104 l-39 -24 0 -91 c0 -82
2 -92 25 -114 23 -24 30 -25 143 -25 174 0 162 -24 162 329 0 287 -3 310 -39
338 -12 9 -84 12 -271 11 -140 -1 -274 -3 -296 -5z"/>
        <path d="M43 1368 c-32 -15 -47 -60 -40 -120 5 -35 13 -55 27 -65 12 -8 32
-39 45 -69 26 -58 47 -68 66 -31 7 12 25 38 41 57 16 19 33 41 39 48 5 6 24
12 42 12 41 0 56 10 54 35 -2 15 5 21 26 23 23 3 27 0 27 -21 0 -28 16 -37 66
-37 27 0 37 -5 43 -22 5 -13 21 -34 35 -47 l26 -24 21 26 c23 31 47 34 90 12
39 -21 43 -11 37 107 -6 136 13 128 -337 127 -178 0 -294 -4 -308 -11z"/>
        <path d="M3175 1347 c-16 -38 -38 -171 -50 -304 -7 -69 -6 -73 13 -73 29 0 35
-28 36 -145 1 -96 2 -100 24 -103 21 -3 22 -1 22 77 0 77 1 80 29 100 16 12
33 21 38 20 11 -1 123 -135 123 -148 0 -6 -11 -11 -25 -11 -18 0 -25 -5 -25
-20 0 -19 7 -20 120 -20 111 0 120 1 120 19 0 13 -10 21 -34 25 -27 5 -55 28
-125 102 -50 53 -91 100 -91 104 0 18 161 129 196 136 25 5 34 11 32 23 -3 14
-20 16 -113 16 -102 0 -110 -1 -110 -19 0 -13 8 -20 22 -21 13 -1 26 -4 29 -7
5 -6 -94 -92 -157 -138 l-26 -19 -7 207 c-8 226 -15 260 -41 199z"/>
        <path d="M1674 1319 c-49 -14 -125 -69 -161 -117 -43 -57 -56 -110 -51 -212 3
-70 9 -94 33 -139 54 -99 146 -152 265 -154 97 -1 160 24 233 93 59 55 61 60
45 76 -16 16 -19 15 -62 -24 -116 -107 -236 -118 -331 -31 -64 59 -86 111 -86
203 0 55 6 89 21 123 78 177 278 192 371 28 28 -50 53 -67 71 -49 3 3 -6 50
-21 105 -23 88 -28 99 -48 99 -14 0 -23 -6 -23 -15 0 -18 5 -19 -58 5 -55 21
-143 25 -198 9z"/>
        <path d="M2260 1138 c-50 -14 -97 -53 -122 -101 -18 -33 -23 -59 -23 -118 0
-67 4 -81 30 -125 68 -111 240 -129 338 -36 48 45 61 80 61 162 1 113 -43 183
-133 215 -49 17 -99 18 -151 3z m172 -107 c30 -34 43 -85 34 -135 -24 -130
-214 -159 -267 -42 -46 101 -1 198 99 216 55 9 104 -5 134 -39z"/>
        <path d="M2729 1127 c-24 -13 -57 -43 -74 -66 -25 -36 -30 -54 -33 -116 -4
-62 0 -82 21 -128 29 -63 65 -92 136 -109 104 -24 211 26 252 117 25 54 25
157 0 210 -22 47 -64 89 -104 104 -51 20 -149 13 -198 -12z m200 -82 c53 -45
66 -141 26 -201 -58 -89 -204 -83 -246 10 -35 76 -15 160 45 197 48 29 136 26
175 -6z"/>
        <path d="M565 1118 c-8 -29 -12 -149 -4 -154 11 -6 64 21 90 47 23 23 25 81 3
103 -18 19 -83 21 -89 4z"/>
        <path d="M6 1105 c-10 -28 -7 -320 5 -354 6 -17 19 -36 29 -41 11 -6 136 -10
300 -10 294 0 328 5 344 45 8 21 8 240 0 247 -5 6 -96 -44 -144 -79 -13 -10
-34 -20 -45 -23 -11 -3 -21 -16 -23 -28 -3 -21 -7 -22 -132 -22 -126 0 -129 0
-132 23 -2 16 -20 30 -70 54 -73 36 -91 58 -103 133 -9 59 -20 78 -29 55z"/>
        <path d="M288 683 l-237 -3 -20 -27 c-20 -24 -21 -38 -20 -267 1 -281 7 -353
34 -372 24 -17 213 -19 249 -3 37 17 46 56 53 224 l6 150 -37 43 c-32 40 -36
49 -35 100 l1 57 14 -50 13 -50 -5 55 c-3 30 -9 57 -15 58 -27 10 10 22 66 22
69 0 75 -5 75 -63 0 -48 -16 -94 -44 -128 -24 -29 -26 -37 -26 -137 1 -153 14
-240 40 -266 19 -19 31 -21 138 -19 115 2 117 2 141 30 l24 28 -6 281 c-4 155
-9 289 -13 298 -10 27 -59 46 -111 44 -26 -2 -155 -4 -285 -5z"/>
        <path d="M748 674 c-15 -8 -30 -25 -34 -38 -3 -13 -4 -150 -2 -305 l3 -283 24
-19 c22 -18 43 -19 308 -19 310 0 336 4 349 56 4 14 4 91 2 171 -6 170 -13
187 -70 158 -18 -10 -46 -20 -63 -24 -28 -6 -30 -10 -31 -52 -2 -102 -36 -123
-203 -123 -69 -1 -138 2 -152 6 -46 13 -62 52 -63 149 l-1 86 210 6 c136 4
211 3 215 -3 4 -7 24 -7 58 1 74 15 92 42 92 134 0 62 -3 74 -23 93 -23 22
-29 22 -308 22 -232 -1 -289 -4 -311 -16z"/>
        <path d="M3545 660 c-59 -21 -73 -50 -26 -50 l31 0 0 -80 0 -80 -32 20 c-40
24 -126 27 -168 5 -94 -49 -125 -188 -65 -292 46 -78 133 -98 219 -50 l46 26
0 -25 c0 -24 2 -25 67 -22 51 2 69 7 71 18 2 10 -9 19 -30 25 l-33 10 -5 254
c-3 157 -9 255 -15 257 -5 1 -32 -6 -60 -16z m-41 -280 c40 -36 52 -76 36
-123 -35 -108 -183 -115 -226 -10 -22 51 -11 95 32 132 49 43 109 44 158 1z"/>
        <path d="M3058 652 c-51 -17 -65 -42 -23 -42 39 0 45 -32 45 -244 0 -204 -3
-216 -48 -216 -17 0 -23 -5 -20 -17 3 -16 16 -18 98 -18 79 0 95 3 98 16 2 11
-6 18 -26 22 -19 4 -31 14 -36 29 -3 13 -6 128 -6 256 0 262 7 244 -82 214z"/>
        <path d="M1730 618 c0 -9 9 -20 20 -23 25 -8 49 -53 52 -97 2 -32 -70 -278
-81 -278 -7 0 -111 330 -111 352 0 9 14 21 31 27 53 18 22 31 -77 31 -78 0
-94 -3 -94 -15 0 -9 11 -20 24 -25 21 -7 35 -41 103 -247 l80 -238 30 -3 c25
-3 33 1 38 20 4 13 25 81 48 153 47 150 40 153 102 -41 37 -117 51 -140 84
-129 16 5 36 54 98 243 64 196 82 239 101 247 12 5 22 18 22 27 0 16 -10 18
-80 18 -73 0 -80 -2 -80 -20 0 -13 7 -20 20 -20 11 0 23 -6 26 -14 6 -15 -95
-366 -105 -366 -8 0 -112 340 -111 363 0 11 8 17 25 17 18 0 25 5 25 19 0 18
-7 20 -95 18 -81 -2 -95 -4 -95 -19z"/>
        <path d="M347 593 c-11 -10 -8 -101 3 -108 6 -4 10 17 10 54 0 62 -1 66 -13
54z"/>
        <path d="M378 587 c-5 -10 -7 -42 -7 -70 1 -45 2 -48 9 -22 4 17 8 24 9 17 3
-30 21 2 20 36 -1 33 -2 34 -9 12 -7 -23 -7 -23 -11 10 -3 27 -6 31 -11 17z"/>
        <path d="M323 535 c0 -27 2 -38 4 -22 2 15 2 37 0 50 -2 12 -4 0 -4 -28z"/>
        <path d="M2405 485 c-5 -2 -22 -6 -38 -9 -45 -10 -103 -70 -117 -121 -24 -85
4 -185 64 -228 26 -18 44 -22 113 -22 90 0 118 13 160 74 60 89 28 243 -59
284 -34 15 -105 29 -123 22z m102 -75 c56 -34 76 -104 49 -175 -22 -55 -66
-85 -127 -85 -107 0 -168 101 -125 205 29 69 133 98 203 55z"/>
        <path d="M2740 475 c-14 -8 -35 -14 -47 -15 -16 0 -23 -6 -23 -19 0 -15 8 -21
33 -23 l32 -3 3 -121 c3 -130 -5 -154 -49 -154 -10 0 -19 -7 -19 -15 0 -13 16
-15 103 -13 82 2 102 6 102 18 0 9 -12 17 -30 20 l-30 5 -3 112 -3 111 36 27
c34 27 36 27 74 12 49 -20 78 -5 67 36 -12 50 -92 47 -151 -5 l-35 -30 0 36
c0 40 -16 46 -60 21z"/>
    </g>
</svg>
