<?xml version="1.0" standalone="no"?>
<!DOCTYPE svg PUBLIC "-//W3C//DTD SVG 20010904//EN"
        "http://www.w3.org/TR/2001/REC-SVG-20010904/DTD/svg10.dtd">
<svg version="1.0" xmlns="http://www.w3.org/2000/svg"
     width="567.000000pt" height="114.000000pt" viewBox="0 0 567.000000 114.000000"
     preserveAspectRatio="xMidYMid meet">

    <g transform="translate(0.000000,114.000000) scale(0.100000,-0.100000)"
       fill="#000000" stroke="none">
        <path d="M320 991 l0 -150 -36 24 c-62 42 -148 31 -200 -27 -102 -111 -112
-410 -17 -536 59 -79 165 -84 233 -12 l28 30 6 -30 c5 -30 6 -30 71 -30 l65 0
0 429 0 430 -47 6 c-27 3 -60 9 -75 11 l-28 6 0 -151z m-26 -252 c26 -20 26
-21 26 -160 0 -154 -7 -177 -60 -199 -25 -10 -34 -10 -55 4 -14 10 -31 29 -37
44 -13 32 -16 192 -5 243 17 82 75 112 131 68z"/>
        <path d="M2913 1018 l-63 -10 0 -69 0 -69 -35 0 -35 0 0 -60 0 -60 34 0 34 0
4 -192 c3 -169 5 -198 23 -233 27 -54 76 -85 134 -85 49 0 131 32 131 50 0 6
-10 34 -21 61 -17 38 -26 48 -38 43 -37 -15 -49 -15 -65 1 -14 14 -16 42 -16
186 l0 169 50 0 c48 0 50 1 50 29 0 16 3 43 6 60 l7 31 -57 0 -56 0 0 80 c0
58 -3 80 -12 79 -7 -1 -41 -6 -75 -11z"/>
        <path d="M1840 934 c-53 -27 -82 -35 -158 -43 -73 -7 -100 -14 -131 -34 -98
-65 -119 -248 -37 -330 l32 -32 -23 -34 c-31 -46 -38 -90 -20 -134 22 -50 64
-69 172 -76 84 -6 90 -8 105 -33 13 -25 13 -31 0 -55 -12 -21 -27 -30 -63 -37
-70 -14 -118 1 -137 41 -15 32 -17 33 -77 33 -59 0 -63 -2 -63 -22 0 -122 105
-189 271 -175 150 13 219 76 219 202 0 67 -18 104 -66 142 -32 24 -48 28 -130
33 -98 5 -118 14 -112 49 3 20 10 22 73 24 113 4 175 54 197 159 14 70 -2 132
-47 174 l-34 31 59 6 c32 3 63 8 68 11 10 6 -17 137 -27 135 -3 -1 -35 -16
-71 -35z m-104 -185 c14 -16 19 -36 19 -79 -1 -71 -21 -100 -71 -100 -46 0
-74 38 -74 100 0 62 28 100 74 100 21 0 40 -8 52 -21z"/>
        <path d="M5193 934 c-47 -25 -79 -34 -140 -39 -43 -3 -97 -13 -120 -21 -128
-46 -166 -251 -66 -356 l25 -26 -24 -32 c-17 -24 -23 -45 -23 -85 0 -90 52
-125 187 -125 75 0 98 -14 98 -58 0 -35 -10 -49 -43 -61 -36 -14 -86 -14 -126
0 -23 8 -34 19 -38 40 -5 28 -7 29 -69 29 l-64 0 0 -35 c0 -59 33 -110 87
-136 41 -21 63 -24 148 -24 84 1 108 5 148 24 134 65 144 262 18 328 -35 18
-60 23 -122 23 -81 0 -117 16 -105 47 3 8 6 17 6 19 0 2 26 4 58 5 73 1 115
16 157 58 44 43 58 88 53 167 -4 58 -7 68 -42 103 l-38 38 57 5 c75 6 80 13
61 83 -8 31 -16 58 -18 59 -2 2 -31 -12 -65 -30z m-109 -186 c24 -34 21 -133
-4 -158 -23 -23 -68 -26 -94 -7 -37 27 -37 147 0 174 29 21 81 16 98 -9z"/>
        <path d="M798 873 c-15 -9 -38 -37 -52 -62 -25 -45 -26 -45 -26 -16 -1 70 -6
75 -76 75 l-64 0 0 -305 0 -305 74 0 74 0 4 178 c3 167 4 179 28 222 24 42 28
45 72 48 l46 3 6 45 c3 24 9 64 12 89 l6 45 -38 0 c-22 0 -51 -8 -66 -17z"/>
        <path d="M2465 873 c-72 -38 -105 -90 -105 -167 0 -94 38 -141 157 -197 63
-29 84 -43 89 -62 19 -77 -78 -102 -167 -43 l-36 24 -33 -46 c-38 -54 -35 -63
33 -105 55 -35 144 -46 213 -27 85 24 144 103 144 195 0 90 -47 149 -150 191
-36 14 -73 33 -82 41 -22 20 -24 69 -2 77 32 12 90 5 122 -14 18 -11 35 -20
37 -20 3 0 16 23 30 51 25 49 26 51 8 65 -65 53 -194 71 -258 37z"/>
        <path d="M3305 872 c-86 -41 -135 -136 -143 -276 -10 -206 71 -342 211 -354
168 -14 267 108 267 327 0 141 -39 238 -116 291 -50 34 -160 40 -219 12z m144
-131 c28 -28 41 -85 40 -176 -1 -99 -16 -152 -52 -178 -36 -27 -73 -15 -101
33 -18 30 -21 52 -21 145 0 110 7 136 43 178 20 23 67 22 91 -2z"/>
        <path d="M3948 874 c-16 -8 -39 -35 -51 -61 l-24 -46 -7 51 -7 52 -64 0 -65 0
0 -305 0 -305 75 0 75 0 0 164 c0 227 22 286 105 286 l43 0 6 58 c4 31 10 72
13 90 5 32 5 32 -33 32 -22 -1 -51 -8 -66 -16z"/>
        <path d="M4215 874 c-49 -25 -81 -62 -112 -127 -26 -57 -28 -71 -28 -182 0
-114 2 -123 31 -186 46 -96 113 -140 213 -139 57 1 110 19 156 55 l36 27 -27
46 c-15 26 -28 48 -29 50 -1 1 -24 -9 -50 -23 -80 -42 -140 -26 -169 45 -29
72 -33 69 137 72 l152 3 3 45 c5 67 -16 169 -46 224 -39 71 -97 106 -176 106
-36 0 -74 -7 -91 -16z m145 -136 c12 -19 20 -51 20 -75 l0 -43 -80 0 c-89 0
-92 3 -70 79 14 49 38 71 77 71 27 0 37 -6 53 -32z"/>
        <path d="M5568 874 c-16 -8 -39 -35 -51 -61 l-24 -46 -7 51 -7 52 -64 0 -65 0
0 -305 0 -305 75 0 75 0 0 164 c0 227 22 286 105 286 l43 0 6 58 c4 31 10 72
13 90 5 32 5 32 -33 32 -22 -1 -51 -8 -66 -16z"/>
        <path d="M952 613 c4 -288 10 -316 70 -353 62 -37 140 -22 191 39 l25 30 6
-34 7 -35 64 0 65 0 0 305 0 305 -75 0 -75 0 0 -216 0 -216 -34 -34 c-39 -39
-49 -41 -76 -14 -19 19 -20 33 -20 250 l0 230 -76 0 -76 0 4 -257z"/>
        <path d="M1990 620 l0 -70 150 0 150 0 0 70 0 70 -150 0 -150 0 0 -70z"/>
        <path d="M4622 425 c-37 -31 -48 -81 -28 -129 27 -64 88 -75 131 -24 24 28 27
39 22 82 -3 38 -11 55 -31 73 -35 30 -57 29 -94 -2z"/>
    </g>
</svg>
