<?xml version="1.0" standalone="no"?>
<!DOCTYPE svg PUBLIC "-//W3C//DTD SVG 20010904//EN"
 "http://www.w3.org/TR/2001/REC-SVG-20010904/DTD/svg10.dtd">
<svg version="1.0" xmlns="http://www.w3.org/2000/svg"
 width="503.000000pt" height="150.000000pt" viewBox="0 0 503.000000 150.000000"
 preserveAspectRatio="xMidYMid meet">

<g transform="translate(0.000000,150.000000) scale(0.100000,-0.100000)"
fill="#000000" stroke="none">
<path d="M2332 1489 c-57 -11 -154 -64 -202 -110 -129 -126 -167 -323 -93
-482 97 -205 314 -300 528 -230 l50 17 -65 11 c-125 21 -155 73 -83 147 24 25
32 38 22 38 -20 0 -49 32 -49 53 0 9 13 26 29 38 l28 21 -24 26 c-20 21 -24
35 -21 67 3 22 8 48 12 58 7 15 1 17 -73 17 l-81 0 0 -131 0 -130 30 -10 c53
-19 32 -29 -60 -29 -92 0 -113 10 -60 29 l30 10 0 130 0 131 -30 0 c-20 0 -30
5 -30 15 0 10 10 15 29 15 27 0 29 2 33 56 6 73 44 114 112 121 56 7 99 -16
94 -50 -4 -30 -32 -33 -67 -8 -56 40 -81 19 -81 -67 l0 -50 260 0 c215 1 260
3 260 15 0 29 -54 118 -99 163 -107 107 -247 149 -399 119z"/>
<path d="M2915 1347 c-13 -10 -16 -21 -11 -40 5 -22 12 -27 36 -27 24 0 31 5
36 27 5 19 2 30 -11 40 -11 7 -22 13 -25 13 -3 0 -14 -6 -25 -13z"/>
<path d="M2535 1145 c-53 -53 -16 -145 58 -145 46 0 79 36 79 86 0 74 -86 111
-137 59z"/>
<path d="M2726 1120 c12 -35 12 -45 0 -74 -24 -58 -93 -89 -168 -75 -25 4 -44
2 -55 -6 -30 -22 1 -42 90 -55 94 -15 153 -33 179 -57 17 -15 19 -12 45 43 23
51 27 72 27 159 l1 100 -66 3 -67 3 14 -41z"/>
<path d="M2908 1023 l-3 -138 -27 -3 c-16 -2 -28 -9 -28 -18 0 -11 19 -14 90
-14 73 0 90 3 90 15 0 8 -8 15 -18 15 -37 0 -42 20 -42 152 l0 128 -30 0 -29
0 -3 -137z"/>
<path d="M2500 833 c-27 -35 -23 -74 10 -90 36 -18 145 -16 186 3 39 19 53 50
31 72 -15 15 -127 41 -179 42 -17 0 -34 -9 -48 -27z"/>
<path d="M70 367 c-16 -8 -28 -26 -34 -50 -5 -20 -15 -37 -23 -37 -7 0 -13 -4
-13 -10 0 -5 7 -10 15 -10 12 0 15 -15 15 -75 0 -60 -3 -75 -15 -75 -8 0 -15
-4 -15 -10 0 -5 23 -10 50 -10 28 0 50 5 50 10 0 6 -7 10 -15 10 -12 0 -15 15
-15 75 0 60 3 75 15 75 8 0 15 5 15 10 0 6 -7 10 -15 10 -10 0 -15 11 -15 35
0 27 4 35 18 35 10 0 23 -5 30 -12 9 -9 15 -9 25 1 10 10 8 15 -7 27 -24 17
-34 17 -66 1z"/>
<path d="M1818 368 c-30 -10 -38 -28 -13 -28 12 0 15 -19 15 -115 0 -96 -3
-115 -15 -115 -8 0 -15 -4 -15 -10 0 -5 23 -10 50 -10 28 0 50 5 50 10 0 6 -7
10 -15 10 -20 0 -25 26 -28 156 l-2 111 -27 -9z"/>
<path d="M2155 365 c-29 -13 -29 -14 -7 -20 21 -7 22 -11 22 -131 0 -69 4
-124 9 -124 5 0 11 6 14 13 4 9 7 9 18 0 14 -14 66 -17 94 -7 44 17 59 114 24
158 -22 28 -73 35 -110 16 -18 -10 -19 -7 -19 44 0 30 -3 57 -7 59 -5 3 -21
-1 -38 -8z m137 -122 c23 -21 24 -89 1 -115 -18 -20 -63 -24 -81 -6 -20 20
-15 115 6 127 25 15 53 13 74 -6z"/>
<path d="M2643 368 c-26 -13 -30 -28 -8 -28 12 0 15 -19 15 -110 0 -89 -3
-112 -15 -116 -30 -12 -14 -24 30 -24 44 0 60 12 30 24 -12 4 -15 29 -15 136
0 71 -3 130 -7 129 -5 0 -18 -5 -30 -11z"/>
<path d="M395 360 c-4 -7 -3 -16 3 -22 14 -14 45 -2 40 15 -6 16 -34 21 -43 7z"/>
<path d="M2907 363 c-14 -13 -6 -33 13 -33 13 0 20 7 20 20 0 19 -20 27 -33
13z"/>
<path d="M3940 326 c0 -8 -11 -23 -25 -34 -28 -22 -32 -32 -11 -32 14 0 19
-26 28 -135 3 -28 6 -30 42 -30 22 0 41 5 43 11 2 7 -8 9 -27 6 l-30 -4 0 76
0 76 31 0 c17 0 28 4 24 10 -3 6 -17 10 -31 10 -20 0 -24 5 -24 30 0 17 -4 30
-10 30 -5 0 -10 -6 -10 -14z"/>
<path d="M4942 317 c-6 -15 -19 -30 -27 -33 -19 -8 -19 -24 0 -24 12 0 15 -15
15 -74 0 -84 10 -99 61 -94 43 4 48 23 7 23 l-33 0 -3 73 -3 72 31 0 c16 0 30
5 30 10 0 6 -13 10 -29 10 -26 0 -30 4 -33 33 l-4 32 -12 -28z"/>
<path d="M172 264 c-24 -16 -30 -54 -9 -54 7 0 17 10 22 23 8 17 18 22 45 22
30 0 35 -4 38 -26 3 -24 0 -27 -45 -33 -74 -10 -105 -45 -77 -85 17 -24 58
-28 99 -9 19 9 28 9 37 0 15 -15 68 -16 68 -2 0 6 -9 10 -20 10 -18 0 -20 7
-20 63 0 83 -16 107 -73 107 -24 0 -53 -7 -65 -16z m86 -136 c-29 -19 -60 -20
-76 -4 -15 15 -15 17 0 32 9 9 31 19 49 23 31 6 34 5 37 -17 2 -14 -2 -29 -10
-34z"/>
<path d="M388 273 c-22 -5 -24 -23 -3 -23 12 0 15 -14 15 -70 0 -56 -3 -70
-15 -70 -8 0 -15 -4 -15 -10 0 -5 20 -10 45 -10 44 0 60 12 30 24 -12 4 -15
24 -15 86 0 82 -1 84 -42 73z"/>
<path d="M508 273 c-22 -5 -24 -23 -3 -23 12 0 15 -14 15 -70 0 -56 -3 -70
-15 -70 -8 0 -15 -4 -15 -10 0 -5 23 -10 50 -10 28 0 50 5 50 10 0 6 -6 10
-14 10 -16 0 -29 69 -20 105 6 26 43 43 64 30 6 -4 17 -1 25 5 21 18 30 7 65
-80 18 -44 38 -80 44 -80 7 0 20 23 30 50 10 28 21 50 25 50 4 0 15 -22 25
-50 10 -27 24 -50 31 -50 7 0 27 36 45 80 18 44 36 83 41 86 20 12 7 24 -26
24 -38 0 -43 -6 -21 -24 12 -9 11 -19 -6 -64 -12 -29 -24 -49 -28 -45 -4 4
-15 30 -25 57 -13 36 -15 51 -7 54 27 9 9 22 -28 22 -44 0 -48 -5 -24 -31 15
-16 15 -22 -1 -63 -10 -25 -21 -46 -24 -46 -4 0 -16 26 -26 57 -15 42 -16 58
-7 61 7 2 12 8 12 13 0 14 -142 8 -167 -7 -20 -13 -23 -13 -23 1 0 15 -9 17
-42 8z"/>
<path d="M1022 264 c-24 -17 -30 -54 -9 -54 8 0 19 12 25 26 10 21 18 25 45
22 26 -2 33 -8 35 -29 3 -24 -1 -27 -44 -33 -54 -7 -84 -29 -84 -61 0 -43 49
-59 105 -33 19 9 28 9 37 0 15 -15 68 -16 68 -2 0 6 -9 10 -20 10 -18 0 -20 7
-20 63 0 83 -16 107 -73 107 -24 0 -53 -7 -65 -16z m98 -107 c0 -39 -66 -61
-91 -31 -11 14 -10 19 10 35 13 11 36 19 52 19 24 0 29 -4 29 -23z"/>
<path d="M1212 266 c18 -13 88 -157 88 -180 0 -7 -9 -25 -21 -40 -20 -25 -23
-26 -44 -12 -24 16 -35 12 -35 -10 0 -21 47 -28 73 -11 15 10 42 57 72 127 27
62 54 114 62 117 25 10 13 23 -22 23 -33 0 -48 -14 -24 -22 10 -3 -28 -118
-40 -118 -3 0 -16 25 -29 56 -22 54 -22 57 -5 70 16 12 11 13 -37 13 -48 0
-53 -1 -38 -13z"/>
<path d="M1602 257 c-26 -27 -27 -45 -7 -74 13 -19 13 -22 0 -27 -20 -7 -19
-42 0 -50 13 -5 12 -9 -5 -26 -44 -44 0 -83 87 -77 62 4 95 29 91 66 -3 27
-34 41 -121 56 -48 8 -44 31 4 27 50 -4 89 28 89 74 0 24 5 34 15 34 8 0 15 3
15 8 0 4 -33 8 -73 9 -66 2 -76 0 -95 -20z m106 -34 c7 -44 -58 -69 -81 -32
-14 22 -1 67 21 72 24 5 56 -16 60 -40z m-8 -139 c64 -13 42 -64 -28 -64 -59
0 -89 29 -60 58 13 13 40 15 88 6z"/>
<path d="M1945 255 c-19 -18 -25 -35 -25 -70 0 -61 32 -95 89 -95 61 0 96 35
96 95 0 39 -5 51 -28 71 -39 33 -99 33 -132 -1z m109 -17 c44 -63 -11 -162
-68 -124 -30 19 -40 68 -21 112 11 28 19 34 44 34 20 0 35 -8 45 -22z"/>
<path d="M2417 262 c-19 -21 -23 -52 -7 -52 6 0 16 11 22 25 10 22 17 26 47
23 30 -3 36 -7 39 -29 3 -25 0 -27 -45 -34 -60 -9 -80 -19 -88 -46 -15 -46 50
-74 110 -47 19 9 28 9 37 0 15 -15 68 -16 68 -2 0 6 -8 10 -19 10 -16 0 -19
10 -23 71 -3 55 -8 74 -23 85 -28 21 -98 18 -118 -4z m82 -135 c-33 -26 -74
-19 -74 13 0 21 7 27 45 36 42 10 45 9 48 -10 3 -12 -5 -28 -19 -39z"/>
<path d="M2888 273 c-22 -5 -24 -23 -3 -23 12 0 15 -14 15 -70 0 -56 -3 -70
-15 -70 -8 0 -15 -4 -15 -10 0 -5 23 -10 50 -10 28 0 50 5 50 10 0 6 -7 10
-15 10 -12 0 -15 16 -15 85 0 90 -1 92 -52 78z"/>
<path d="M3018 273 c-22 -5 -24 -23 -3 -23 12 0 15 -14 15 -70 0 -56 -3 -70
-15 -70 -8 0 -15 -4 -15 -10 0 -5 24 -10 53 -9 50 0 51 1 30 16 -19 12 -23 25
-23 64 0 52 15 75 56 85 39 10 54 -11 54 -78 0 -43 -4 -60 -15 -64 -30 -12
-14 -24 30 -24 44 0 60 12 30 24 -11 4 -15 22 -15 74 0 39 -5 73 -12 80 -17
17 -74 15 -103 -4 -23 -15 -25 -15 -25 0 0 16 -9 18 -42 9z"/>
<path d="M3250 271 c0 -5 4 -11 10 -13 5 -1 25 -39 44 -83 19 -44 41 -81 48
-83 8 -1 23 22 38 60 13 34 35 77 47 95 l22 33 -39 0 c-40 0 -53 -13 -26 -23
12 -5 11 -15 -7 -61 -12 -31 -25 -56 -28 -56 -3 0 -16 25 -28 56 -20 54 -20
57 -4 70 16 12 12 13 -29 14 -27 0 -48 -4 -48 -9z"/>
<path d="M3505 255 c-19 -18 -25 -35 -25 -70 0 -61 32 -95 88 -95 40 0 94 31
80 46 -5 4 -16 0 -26 -9 -19 -18 -59 -22 -78 -9 -15 10 -34 47 -34 66 0 13 13
16 70 16 61 0 70 2 70 18 0 59 -98 84 -145 37z m103 -17 c3 -15 -4 -18 -42
-18 -25 0 -46 4 -46 8 0 34 82 42 88 10z"/>
<path d="M3716 267 c-30 -22 -17 -59 29 -81 67 -31 85 -45 79 -61 -10 -25 -64
-18 -96 12 -33 31 -42 27 -28 -13 10 -28 14 -30 67 -32 41 -2 61 2 74 14 39
35 19 66 -64 103 -52 22 -58 44 -14 49 16 2 34 -5 46 -17 30 -30 42 -27 30 7
-8 24 -15 27 -57 30 -28 2 -55 -3 -66 -11z"/>
<path d="M4060 268 c-25 -11 -25 -11 -2 -15 20 -4 22 -10 22 -69 0 -48 -4 -66
-15 -70 -30 -12 -14 -24 30 -24 44 0 60 12 30 24 -11 4 -15 21 -15 60 0 48 3
58 25 72 46 30 60 17 63 -60 2 -56 0 -70 -15 -82 -16 -12 -12 -13 37 -13 48 0
53 1 38 13 -14 10 -18 28 -18 73 0 54 2 61 25 71 54 25 65 13 65 -74 0 -39 -4
-56 -15 -60 -30 -12 -14 -24 30 -24 44 0 60 12 30 24 -11 4 -15 22 -15 74 0
39 -5 73 -12 80 -17 17 -69 15 -95 -3 -18 -13 -22 -13 -33 0 -15 18 -71 20
-89 3 -11 -10 -14 -10 -18 0 -6 14 -19 15 -53 0z"/>
<path d="M4455 255 c-19 -18 -25 -35 -25 -70 0 -61 32 -95 88 -95 40 0 94 31
80 46 -5 4 -16 0 -26 -9 -19 -18 -59 -22 -79 -9 -12 7 -33 54 -33 73 0 5 32 9
70 9 63 0 70 2 70 20 0 58 -98 82 -145 35z m103 -17 c3 -15 -4 -18 -42 -18
-25 0 -46 4 -46 8 0 34 82 42 88 10z"/>
<path d="M4658 273 c-22 -5 -24 -23 -3 -23 12 0 15 -14 15 -70 0 -56 -3 -70
-15 -70 -8 0 -15 -4 -15 -10 0 -5 24 -10 53 -9 50 0 51 1 30 16 -19 13 -23 25
-23 69 0 52 1 55 36 71 52 25 68 11 72 -66 2 -48 0 -63 -13 -67 -30 -12 -14
-24 30 -24 25 0 45 5 45 10 0 6 -7 10 -15 10 -12 0 -15 15 -15 73 0 43 -5 78
-12 85 -17 17 -79 15 -106 -4 -20 -14 -22 -14 -22 0 0 16 -9 18 -42 9z"/>
</g>
</svg>
