<?xml version="1.0" standalone="no"?>
<!DOCTYPE svg PUBLIC "-//W3C//DTD SVG 20010904//EN"
        "http://www.w3.org/TR/2001/REC-SVG-20010904/DTD/svg10.dtd">
<svg version="1.0" xmlns="http://www.w3.org/2000/svg"
     width="887.000000pt" height="229.000000pt" viewBox="0 0 887.000000 229.000000"
     preserveAspectRatio="xMidYMid meet">

    <g transform="translate(0.000000,229.000000) scale(0.100000,-0.100000)"
       fill="#000000" stroke="none">
        <path d="M1240 2255 c0 -8 61 -75 136 -148 142 -137 225 -234 302 -349 47 -71
49 -73 70 -59 20 12 -27 103 -103 198 -72 91 -306 327 -350 354 -36 23 -55 24
-55 4z"/>
        <path d="M1452 2257 c-8 -9 22 -51 120 -162 134 -155 227 -272 267 -337 23
-38 35 -44 58 -30 28 18 -168 292 -312 438 -91 92 -118 110 -133 91z"/>
        <path d="M1061 2241 c-16 -10 -10 -17 96 -104 110 -90 261 -251 357 -380 48
-64 92 -117 97 -117 22 0 21 35 -3 84 -56 114 -213 279 -427 451 -52 41 -97
75 -100 75 -4 0 -12 -4 -20 -9z"/>
        <path d="M880 2190 c0 -5 42 -44 93 -87 146 -122 346 -328 431 -446 69 -95 81
-107 93 -94 50 49 -98 252 -322 443 -176 150 -295 224 -295 184z"/>
        <path d="M1700 2189 c0 -6 37 -56 82 -112 45 -56 119 -159 165 -229 60 -92 89
-128 103 -128 11 0 20 4 20 8 0 12 -113 194 -167 270 -77 109 -162 202 -183
202 -11 0 -20 -5 -20 -11z"/>
        <path d="M730 2125 c0 -8 39 -40 87 -72 232 -152 418 -354 527 -571 15 -29 32
-52 39 -49 40 13 -5 126 -100 252 -101 133 -259 278 -444 405 -73 51 -109 62
-109 35z"/>
        <path d="M1970 2065 c0 -8 24 -52 54 -97 29 -46 77 -123 105 -173 45 -79 92
-128 108 -112 11 12 -111 229 -191 339 -39 54 -76 75 -76 43z"/>
        <path d="M604 2055 c-4 -9 -5 -17 -3 -19 2 -1 36 -22 74 -46 241 -149 412
-325 510 -525 69 -141 89 -221 89 -355 -1 -126 -20 -211 -73 -326 -87 -184
-244 -363 -429 -489 -56 -38 -102 -72 -102 -77 0 -40 106 20 258 146 129 106
266 283 331 428 36 80 72 207 66 233 -3 11 -9 86 -13 166 l-8 146 -56 114
c-83 169 -202 316 -361 442 -79 64 -201 146 -243 163 -31 13 -35 13 -40 -1z"/>
        <path d="M480 1968 c1 -7 40 -35 87 -63 361 -210 572 -498 573 -783 0 -133
-56 -306 -141 -428 -76 -111 -277 -291 -409 -366 -39 -22 -50 -41 -31 -52 14
-9 118 49 201 112 163 124 286 268 360 423 106 221 90 464 -46 691 -93 154
-311 356 -479 443 -68 36 -115 45 -115 23z"/>
        <path d="M2230 1886 c0 -22 76 -166 120 -226 22 -30 40 -48 40 -40 0 30 -129
280 -145 280 -8 0 -15 -6 -15 -14z"/>
        <path d="M370 1882 c0 -16 34 -39 125 -86 371 -191 577 -557 474 -844 -75
-210 -253 -405 -481 -529 -46 -25 -64 -53 -34 -53 31 0 180 86 258 149 113 91
198 195 258 316 66 135 84 207 76 312 -9 104 -27 167 -77 264 -90 173 -263
331 -486 443 -70 35 -113 45 -113 28z"/>
        <path d="M275 1780 c-9 -15 -9 -15 55 -40 164 -65 370 -237 443 -370 123 -225
86 -455 -107 -657 -79 -84 -160 -145 -254 -192 -57 -29 -83 -54 -69 -67 9 -9
116 34 179 72 79 48 199 162 250 238 49 71 91 163 108 235 18 76 8 231 -19
302 -48 126 -168 269 -314 372 -115 82 -254 137 -272 107z"/>
        <path d="M200 1687 c0 -7 41 -30 92 -52 384 -162 528 -482 345 -767 -65 -101
-185 -199 -342 -278 -29 -14 -47 -50 -26 -50 6 0 35 9 65 21 145 54 309 202
387 351 l44 83 0 116 0 116 -43 86 c-71 143 -213 271 -394 357 -66 31 -128 40
-128 17z"/>
        <path d="M130 1582 c0 -14 38 -34 107 -56 65 -22 176 -99 235 -165 57 -63 85
-120 100 -200 30 -160 -85 -330 -298 -437 -52 -26 -94 -54 -94 -61 0 -18 20
-16 87 9 224 83 382 296 358 484 -17 139 -153 303 -318 384 -83 41 -177 63
-177 42z"/>
        <path d="M80 1475 c0 -8 12 -17 28 -21 43 -9 103 -35 157 -69 143 -90 207
-215 171 -338 -29 -100 -130 -202 -246 -248 -65 -26 -84 -39 -72 -51 12 -12
120 19 172 49 25 15 69 49 97 76 197 186 117 455 -174 588 -69 32 -133 39
-133 14z"/>
        <path d="M2567 1473 c-4 -3 -7 -13 -7 -20 0 -21 41 -113 50 -113 12 0 0 80
-17 113 -15 29 -16 30 -26 20z"/>
        <path d="M1784 1409 c3 -34 6 -174 6 -310 l0 -249 65 0 65 0 0 260 0 260 173
-2 172 -3 3 -257 2 -258 70 0 70 0 0 243 c0 133 -3 272 -7 310 l-6 67 -310 0
-310 0 7 -61z"/>
        <path d="M3012 1445 c-65 -20 -111 -61 -141 -124 -22 -48 -26 -69 -26 -151 1
-122 22 -188 81 -246 61 -62 109 -73 329 -76 l180 -3 3 34 c2 18 -1 38 -7 44
-7 7 -79 13 -174 17 -141 4 -165 8 -189 25 -34 25 -68 85 -68 119 l0 26 220 0
220 0 0 45 0 45 -221 0 -222 0 6 40 c3 21 15 53 27 71 37 51 71 59 245 59
l155 0 0 45 0 45 -187 -1 c-127 0 -202 -5 -231 -14z"/>
        <path d="M3640 1420 l0 -40 130 0 130 0 0 -270 0 -270 71 0 71 0 -3 268 -4
267 133 3 133 3 -3 37 -3 37 -327 3 -328 2 0 -40z"/>
        <path d="M4460 1348 c0 -63 3 -203 7 -311 l6 -197 69 0 70 0 -7 110 -8 110
175 0 c206 0 260 11 307 65 65 74 63 192 -4 259 -57 58 -101 66 -372 73 l-243
6 0 -115z m427 3 c49 -23 63 -45 63 -100 0 -88 -55 -111 -245 -103 l-105 5 0
108 0 109 123 0 c98 0 130 -4 164 -19z"/>
        <path d="M5624 1450 c-132 -18 -224 -86 -259 -190 -14 -42 -16 -72 -12 -138
15 -206 124 -293 367 -293 196 -1 292 42 354 156 18 34 21 56 21 155 0 109 -2
118 -30 170 -36 64 -88 104 -165 124 -75 19 -202 26 -276 16z m192 -95 c91
-27 128 -89 128 -220 1 -77 -2 -96 -23 -131 -37 -65 -88 -89 -191 -89 -153 0
-210 53 -218 198 -5 95 8 154 44 196 46 55 162 75 260 46z"/>
        <path d="M6578 1418 c-9 -18 -77 -158 -152 -311 l-135 -278 75 3 76 3 107 238
c59 131 111 238 117 237 5 -1 55 -108 111 -238 l102 -237 75 -3 c42 -2 76 -1
76 2 0 3 -67 142 -149 310 l-150 306 -68 0 c-68 0 -70 -1 -85 -32z"/>
        <path d="M7263 1373 c4 -38 7 -175 7 -305 l0 -238 77 0 76 0 -6 122 c-4 66 -7
204 -7 305 l0 183 -76 0 -77 0 6 -67z"/>
        <path d="M7582 1287 l-152 -152 158 -158 157 -157 95 0 95 0 -160 160 -160
161 155 149 155 149 -95 1 -95 0 -153 -153z"/>
        <path d="M8319 1427 c-100 -28 -175 -95 -200 -178 -14 -50 -12 -177 5 -234 38
-125 129 -186 301 -200 142 -12 283 25 349 91 54 54 71 107 71 219 0 119 -13
163 -67 221 -61 66 -124 86 -283 90 -85 3 -146 -1 -176 -9z m286 -100 c62 -34
89 -98 89 -207 0 -102 -23 -155 -81 -191 -33 -21 -51 -24 -128 -24 -109 0
-158 21 -192 81 -49 86 -38 247 21 311 59 64 201 79 291 30z"/>
        <path d="M50 1361 c-21 -14 -5 -26 55 -40 140 -34 213 -128 191 -247 -10 -53
-94 -134 -165 -160 -50 -17 -72 -37 -58 -51 3 -3 39 5 79 17 61 18 82 31 124
74 98 97 99 224 2 323 -61 63 -189 110 -228 84z"/>
        <path d="M27 1253 c-11 -10 13 -33 35 -33 49 0 118 -62 118 -105 0 -35 -35
-71 -95 -96 -56 -23 -66 -41 -27 -47 33 -5 121 38 144 70 29 42 27 99 -5 141
-39 51 -146 95 -170 70z"/>
        <path d="M30 1115 c0 -36 10 -42 44 -29 32 12 11 64 -26 64 -14 0 -18 -8 -18
-35z"/>
        <path d="M2607 946 c-10 -14 -20 -40 -24 -57 -5 -27 -3 -31 13 -27 13 2 21 16
26 48 10 59 6 69 -15 36z"/>
        <path d="M1355 772 c-94 -204 -281 -430 -462 -556 -82 -57 -93 -69 -73 -81 17
-11 47 4 130 65 98 74 216 184 280 264 65 82 179 273 186 313 7 35 -2 83 -14
83 -4 -1 -25 -40 -47 -88z"/>
        <path d="M1475 673 c-120 -216 -234 -349 -453 -531 -55 -46 -70 -78 -29 -67
144 43 537 494 541 622 2 57 -19 49 -59 -24z"/>
        <path d="M2397 698 c-18 -15 -118 -258 -111 -270 19 -31 77 59 117 182 32 99
31 115 -6 88z"/>
        <path d="M1589 578 c-80 -132 -160 -231 -307 -380 -109 -110 -143 -151 -135
-159 19 -19 68 19 199 153 132 136 189 206 270 335 57 91 66 123 35 123 -13 0
-33 -24 -62 -72z"/>
        <path d="M2217 583 c-68 -108 -177 -312 -177 -331 0 -33 25 -27 57 13 26 32
183 330 183 347 0 5 -9 8 -20 8 -12 0 -29 -15 -43 -37z"/>
        <path d="M1709 513 c-79 -132 -122 -186 -249 -318 -131 -135 -150 -162 -124
-172 14 -5 52 28 158 138 221 228 359 439 287 439 -14 0 -35 -26 -72 -87z"/>
        <path d="M1855 488 c-71 -115 -141 -210 -245 -333 -44 -52 -80 -100 -80 -105
0 -6 10 -10 23 -10 26 1 92 72 206 224 94 124 195 291 186 305 -15 25 -36 6
-90 -81z"/>
        <path d="M2063 568 c-5 -7 -42 -67 -80 -133 -39 -66 -101 -162 -137 -213 -36
-51 -66 -100 -66 -108 0 -53 108 58 198 203 53 86 132 240 132 257 0 11 -38 6
-47 -6z"/>
        <path d="M2937 378 c-30 -51 -82 -138 -115 -194 l-59 -101 171 -6 c193 -8 406
-9 406 -3 0 2 -53 91 -119 198 l-119 193 -55 3 -55 3 -55 -93z m182 -107 c39
-71 71 -131 71 -135 0 -3 -63 -6 -140 -6 -77 0 -140 3 -140 6 0 8 132 264 136
264 2 0 35 -58 73 -129z"/>
        <path d="M3432 268 l3 -193 48 -3 47 -3 0 128 c0 70 -3 158 -7 196 l-6 67 -44
0 -43 0 2 -192z"/>
        <path d="M3796 438 c-8 -13 -55 -97 -106 -188 -51 -91 -94 -168 -97 -172 -2
-5 20 -8 50 -8 55 0 55 0 81 45 l27 45 124 0 123 0 29 -45 c27 -44 29 -45 81
-45 30 0 52 4 50 9 -1 5 -52 93 -113 195 l-110 186 -62 0 c-54 0 -64 -3 -77
-22z m139 -157 c14 -28 25 -55 25 -61 0 -6 -35 -10 -90 -10 -49 0 -90 3 -90 7
0 3 21 44 47 89 l46 84 18 -30 c10 -16 30 -52 44 -79z"/>
        <path d="M4329 366 l94 -95 -87 -98 -87 -98 52 -3 53 -3 65 72 66 71 63 -71
64 -71 54 0 55 0 -83 95 c-46 53 -83 100 -83 105 0 5 37 50 83 100 l83 90 -53
0 c-52 0 -54 -1 -120 -67 l-68 -67 -68 67 c-67 66 -68 67 -122 67 l-55 0 94
-94z"/>
        <path d="M4946 449 c-95 -22 -136 -76 -136 -177 0 -98 29 -148 105 -183 33
-15 66 -19 188 -19 l147 0 0 25 0 25 -120 0 c-129 0 -164 9 -194 52 -9 12 -16
33 -16 45 l0 23 165 0 165 0 0 25 0 25 -165 0 c-184 0 -186 1 -145 67 25 41
67 53 198 53 l102 0 0 25 0 25 -127 -1 c-71 -1 -146 -5 -167 -10z"/>
        <path d="M5368 453 c-2 -5 -2 -95 0 -200 l4 -193 44 0 44 0 0 200 0 200 -44 0
c-25 0 -46 -3 -48 -7z"/>
        <path d="M5573 447 c-3 -5 -2 -94 2 -198 l8 -189 43 0 43 0 3 73 3 72 155 5
c130 4 159 8 183 24 36 25 47 46 47 95 0 52 -35 95 -92 110 -50 13 -388 20
-395 8z m292 -47 c72 -17 97 -76 49 -121 -24 -22 -33 -24 -132 -24 l-107 0 -3
78 -3 77 78 0 c43 0 96 -5 118 -10z"/>
        <path d="M6180 255 l0 -195 50 0 50 0 0 195 0 195 -50 0 -50 0 0 -195z"/>
        <path d="M6386 428 c-21 -30 -14 -36 121 -112 l114 -64 -105 -57 c-58 -32
-114 -67 -123 -77 -17 -19 -17 -21 6 -39 21 -17 42 -19 227 -19 l204 0 0 25 0
24 -157 3 -157 3 115 61 c63 34 115 67 117 75 1 9 -42 39 -113 79 l-115 65
150 3 150 3 0 24 0 25 -209 0 c-204 0 -210 -1 -225 -22z"/>
        <path d="M6880 425 c0 -25 0 -25 94 -25 l93 0 7 -52 c3 -29 6 -106 6 -170 l0
-118 45 0 45 0 0 170 0 170 100 0 100 0 0 25 0 25 -245 0 -245 0 0 -25z"/>
        <path d="M7430 255 l0 -195 52 0 51 0 -6 97 c-4 54 -7 142 -7 196 l0 97 -45 0
-45 0 0 -195z"/>
        <path d="M7640 312 c0 -76 3 -167 6 -201 l7 -61 44 0 43 0 -2 197 -3 198 -47
3 -48 3 0 -139z"/>
        <path d="M7863 345 l-102 -94 107 -101 107 -100 60 1 60 0 -108 102 -107 103
90 78 c126 110 124 106 53 106 l-59 0 -101 -95z"/>
        <path d="M8170 245 l0 -195 45 0 45 0 0 85 0 85 130 0 130 0 0 -85 0 -85 52 0
51 0 -6 137 c-4 75 -7 162 -7 195 l0 58 -45 0 -45 0 0 -80 0 -80 -130 0 -130
0 0 80 0 80 -45 0 -45 0 0 -195z"/>
    </g>
</svg>
