<?xml version="1.0" standalone="no"?>
<!DOCTYPE svg PUBLIC "-//W3C//DTD SVG 20010904//EN"
 "http://www.w3.org/TR/2001/REC-SVG-20010904/DTD/svg10.dtd">
<svg version="1.0" xmlns="http://www.w3.org/2000/svg"
 width="454.000000pt" height="158.000000pt" viewBox="0 0 454.000000 158.000000"
 preserveAspectRatio="xMidYMid meet">

<g transform="translate(0.000000,158.000000) scale(0.100000,-0.100000)"
fill="#000000" stroke="none">
<path d="M2631 1453 c-29 -38 -68 -102 -89 -142 -33 -68 -37 -83 -37 -155 0
-70 4 -87 27 -126 14 -25 38 -56 53 -70 24 -23 24 -20 -9 34 -41 69 -51 108
-43 179 7 71 37 146 101 255 30 51 53 92 51 92 -2 0 -26 -30 -54 -67z"/>
<path d="M2698 1284 c25 -17 52 -64 52 -90 0 -10 -7 -26 -17 -36 -15 -17 -15
-18 5 -18 25 0 42 27 42 69 0 40 -44 91 -78 91 l-26 0 22 -16z"/>
<path d="M4515 1191 c-3 -5 -19 -76 -35 -158 -35 -173 -64 -276 -83 -292 -11
-8 -19 -5 -37 14 -27 29 -74 33 -108 10 -33 -24 -71 -95 -83 -157 -22 -109 23
-220 95 -233 45 -9 89 11 171 80 39 32 72 60 74 62 2 2 1 6 -3 10 -4 4 -48
-14 -99 -40 -97 -50 -112 -54 -150 -36 -71 32 -77 187 -10 261 20 22 85 24
103 3 7 -8 23 -40 35 -72 13 -32 27 -57 32 -56 4 1 13 37 19 80 7 43 30 148
53 233 43 161 63 300 43 300 -6 0 -13 -4 -17 -9z"/>
<path d="M4176 1161 c-42 -81 -116 -468 -122 -636 -6 -154 8 -151 26 5 19 167
47 308 90 450 52 174 56 196 36 203 -11 4 -21 -3 -30 -22z"/>
<path d="M2734 1078 c57 -87 66 -136 36 -206 -38 -89 -35 -89 -198 -23 -165
67 -214 101 -164 114 9 3 3 5 -14 6 -41 1 -60 -20 -36 -41 26 -24 93 -55 221
-105 64 -24 117 -46 119 -48 2 -2 -9 -21 -23 -44 -16 -24 -33 -70 -41 -112
-16 -86 -44 -125 -122 -175 -74 -47 -223 -157 -218 -161 3 -3 219 125 289 172
38 25 87 112 87 154 0 34 26 97 54 134 13 17 17 17 49 3 38 -16 42 -24 51
-106 l6 -55 -105 -185 c-104 -183 -110 -200 -96 -265 6 -27 8 -25 14 23 5 42
26 89 105 226 54 95 101 183 105 195 3 12 -1 48 -9 78 -8 31 -13 57 -11 59 5
5 119 -66 165 -103 24 -19 50 -46 59 -59 19 -30 11 -67 -19 -82 -16 -7 -18
-11 -7 -11 27 -1 69 38 69 66 0 43 -91 120 -220 187 -63 32 -117 61 -119 62
-2 2 9 27 24 56 51 93 35 173 -51 266 l-44 47 44 -67z"/>
<path d="M3590 988 c-11 -18 -20 -36 -20 -40 0 -5 -20 -8 -44 -8 -68 0 -191
-66 -257 -138 -125 -137 -158 -331 -68 -407 58 -48 159 -22 255 67 l44 40 -20
-57 c-20 -59 -26 -105 -12 -105 18 1 30 18 36 55 4 22 27 86 52 142 24 56 41
109 38 117 -7 18 -48 32 -79 27 -28 -4 -55 -30 -55 -54 0 -16 5 -19 30 -14 16
4 32 2 35 -3 9 -14 -102 -138 -149 -165 -52 -31 -114 -33 -147 -6 -37 30 -33
109 9 194 55 111 186 229 290 261 20 7 22 4 22 -28 0 -29 4 -36 19 -36 15 0
20 10 25 48 3 27 13 57 21 68 17 22 20 60 5 69 -5 3 -19 -9 -30 -27z"/>
<path d="M1384 959 c-113 -26 -160 -176 -83 -264 16 -18 58 -52 94 -75 69 -45
85 -72 65 -109 -18 -34 -90 -23 -137 21 l-22 20 -25 -51 c-14 -28 -26 -53 -26
-55 0 -3 24 -19 53 -36 41 -23 64 -30 107 -30 131 1 207 86 179 202 -12 50
-50 92 -142 155 -50 34 -68 73 -47 98 21 25 66 18 105 -16 l35 -31 25 53 c22
48 23 55 9 70 -37 41 -123 63 -190 48z"/>
<path d="M2018 958 c-50 -13 -94 -65 -114 -135 -25 -85 -16 -280 15 -346 30
-61 70 -89 135 -95 65 -5 115 15 148 59 43 57 53 104 53 240 0 120 -1 128 -30
184 -43 85 -117 118 -207 93z m81 -117 c27 -27 34 -73 29 -200 -3 -90 -7 -113
-23 -131 -25 -28 -56 -22 -74 15 -20 40 -21 259 -1 295 23 44 41 49 69 21z"/>
<path d="M10 675 l0 -285 60 0 60 0 0 109 0 109 60 4 c64 5 98 22 134 72 17
22 21 42 21 99 -1 140 -48 176 -227 177 l-108 0 0 -285z m192 158 c20 -18 24
-64 8 -94 -8 -13 -21 -19 -45 -19 l-35 0 0 65 c0 64 1 65 27 65 14 0 35 -7 45
-17z"/>
<path d="M410 675 l0 -285 65 0 65 0 0 120 0 120 50 0 50 0 0 -120 0 -120 65
0 65 0 0 285 0 285 -65 0 -65 0 0 -110 0 -110 -50 0 -50 0 0 110 0 110 -65 0
-65 0 0 -285z"/>
<path d="M820 952 c0 -5 34 -85 75 -178 l75 -169 0 -107 0 -108 65 0 65 0 0
116 0 116 56 127 c31 69 65 145 75 169 l18 42 -67 0 -68 0 -40 -95 c-21 -52
-42 -91 -46 -87 -3 4 -22 45 -40 92 l-34 85 -67 3 c-37 2 -67 -1 -67 -6z"/>
<path d="M1690 675 l0 -285 60 0 60 0 0 285 0 285 -60 0 -60 0 0 -285z"/>
<path d="M3799 804 c-59 -30 -123 -102 -143 -161 -23 -67 -21 -160 4 -201 59
-96 210 -72 291 46 48 70 58 176 22 245 -15 30 -67 67 -95 67 -9 0 -21 6 -25
14 -7 12 -16 10 -54 -10z m92 -51 c16 -9 36 -33 45 -52 35 -72 -7 -212 -77
-259 -40 -28 -107 -26 -139 3 -45 41 -51 147 -11 222 19 37 20 37 21 11 0 -16
5 -28 10 -28 6 0 10 9 10 20 0 28 26 77 47 89 27 15 61 13 94 -6z"/>
<path d="M2688 497 c-10 -27 -31 -64 -47 -83 -35 -39 -57 -104 -46 -131 6 -14
10 -10 21 25 7 23 29 61 49 84 40 47 48 69 43 119 l-3 34 -17 -48z"/>
<path d="M2410 510 c-22 -22 -64 -100 -57 -107 3 -2 17 12 32 31 15 20 46 50
68 66 l41 30 -32 0 c-18 0 -40 -8 -52 -20z"/>
<path d="M2279 403 c-5 -14 -23 -41 -39 -60 -30 -34 -38 -67 -20 -78 6 -3 10
1 10 9 0 8 15 30 34 48 22 22 36 46 39 71 7 43 -9 50 -24 10z"/>
<path d="M2938 188 c-32 -11 -36 -35 -11 -53 15 -11 12 -14 -20 -30 -38 -18
-48 -44 -23 -64 23 -19 98 -23 147 -8 28 9 52 11 60 6 8 -5 21 -9 29 -9 12 1
12 3 -2 14 -16 12 -16 14 0 29 19 20 2 23 -26 6 -14 -9 -26 -6 -56 12 l-38 22
26 20 c33 24 33 45 0 57 -31 12 -50 12 -86 -2z m87 -28 c0 -8 -12 -19 -27 -24
-22 -8 -32 -6 -47 9 -28 25 -17 37 32 33 29 -2 42 -8 42 -18z m-8 -77 c39 -23
43 -28 27 -34 -31 -12 -129 -10 -142 3 -18 18 -15 26 16 42 37 21 47 20 99
-11z"/>
<path d="M0 109 c0 -37 4 -58 10 -54 5 3 10 26 10 51 0 37 3 44 19 44 17 0 21
-8 24 -52 l3 -53 2 63 2 62 -35 0 -35 0 0 -61z"/>
<path d="M97 164 c-11 -11 -8 -102 3 -109 6 -3 10 5 10 19 0 18 6 25 23 28 17
2 22 10 22 33 0 25 -5 31 -25 33 -14 2 -29 0 -33 -4z m48 -34 c0 -8 -8 -16
-17 -18 -13 -2 -18 3 -18 18 0 15 5 20 18 18 9 -2 17 -10 17 -18z"/>
<path d="M179 143 c-13 -33 -2 -71 24 -87 24 -14 47 15 47 59 0 57 -52 77 -71
28z m54 -13 c8 -31 -3 -61 -22 -58 -17 3 -27 39 -17 64 8 21 33 17 39 -6z"/>
<path d="M272 157 c10 -9 18 -32 21 -63 l3 -49 2 53 c2 39 6 52 17 52 8 0 15
5 15 10 0 6 -17 10 -37 10 -33 -1 -36 -2 -21 -13z"/>
<path d="M341 165 c0 -5 6 -21 14 -35 8 -14 14 -38 15 -53 0 -16 4 -26 10 -22
6 3 10 15 10 26 0 11 7 34 16 50 8 17 13 34 9 37 -6 6 -20 -11 -28 -33 -2 -5
-14 1 -25 15 -12 14 -21 21 -21 15z"/>
<path d="M430 116 c0 -30 5 -58 10 -61 6 -4 10 13 10 44 0 44 3 51 19 51 17 0
21 -8 24 -52 l3 -53 2 63 2 62 -35 0 -35 0 0 -54z"/>
<path d="M534 144 c-20 -29 -11 -70 19 -88 35 -21 62 48 37 95 -15 26 -36 24
-56 -7z m51 -14 c9 -29 -4 -62 -23 -58 -18 3 -28 39 -18 64 8 21 34 17 41 -6z"/>
<path d="M692 110 c0 -60 1 -62 10 -30 l10 35 16 -32 c22 -47 35 -41 16 8 -13
30 -14 43 -5 52 13 13 15 27 3 27 -5 0 -15 -12 -23 -27 l-14 -26 -6 29 c-4 19
-7 7 -7 -36z"/>
<path d="M772 113 c3 -55 4 -58 31 -61 15 -2 27 1 27 7 0 6 -9 11 -20 11 -25
0 -27 37 -2 43 16 4 16 5 0 6 -25 1 -23 31 2 31 11 0 20 5 20 10 0 6 -14 10
-30 10 l-31 0 3 -57z"/>
<path d="M850 110 c0 -38 4 -59 10 -55 6 3 10 21 10 38 l1 32 20 -37 c11 -21
22 -38 24 -38 3 0 4 28 4 63 -2 55 -3 57 -8 22 l-6 -40 -18 32 c-28 53 -37 49
-37 -17z"/>
<path d="M940 160 c0 -5 5 -10 10 -10 6 0 10 -20 10 -45 0 -25 5 -45 10 -45 6
0 10 20 10 45 0 25 5 45 10 45 6 0 10 5 10 10 0 6 -13 10 -30 10 -16 0 -30 -4
-30 -10z"/>
<path d="M1021 108 c1 -35 4 -51 6 -35 3 18 10 27 22 27 10 0 24 6 30 14 18
22 -3 56 -34 56 -24 0 -25 -2 -24 -62z m47 25 c-5 -26 -38 -29 -38 -4 0 15 6
21 21 21 14 0 19 -5 17 -17z"/>
<path d="M1112 158 c-7 -7 -12 -29 -12 -49 0 -73 62 -78 68 -5 5 54 -26 84
-56 54z m44 -23 c9 -23 -5 -65 -21 -65 -16 0 -30 42 -21 65 3 8 12 15 21 15 9
0 18 -7 21 -15z"/>
<path d="M1278 159 c-24 -13 -24 -71 0 -92 42 -38 87 47 46 87 -18 19 -23 19
-46 5z m9 -66 c-4 -17 -4 -17 -12 0 -4 9 -4 25 0 35 8 16 8 16 12 0 3 -10 3
-26 0 -35z m43 17 c0 -10 -4 -22 -10 -25 -6 -4 -10 7 -10 25 0 18 4 29 10 25
6 -3 10 -15 10 -25z"/>
<path d="M1366 138 c10 -18 21 -46 25 -63 l7 -30 1 28 c1 15 8 39 17 52 9 13
14 30 12 37 -3 8 -11 2 -19 -15 l-15 -28 -14 25 c-7 15 -17 26 -22 26 -5 0 -1
-15 8 -32z"/>
<path d="M1455 148 c4 -13 7 -30 7 -38 0 -8 -3 -25 -7 -38 -7 -20 -4 -22 24
-22 17 0 31 5 31 10 0 6 -9 10 -20 10 -22 0 -25 7 -11 29 6 9 6 22 0 33 -8 15
-6 18 11 18 11 0 20 5 20 10 0 6 -14 10 -31 10 -28 0 -31 -2 -24 -22z"/>
<path d="M1530 110 c0 -38 4 -59 10 -55 6 3 10 28 10 55 0 27 -4 52 -10 55 -6
4 -10 -17 -10 -55z"/>
<path d="M1572 110 c0 -40 3 -56 7 -41 9 34 27 37 35 6 4 -14 11 -25 16 -25
13 0 13 1 -4 41 -10 24 -11 39 -4 52 16 31 1 31 -19 1 l-18 -28 -6 29 c-4 20
-7 8 -7 -35z"/>
<path d="M1673 162 c-23 -15 -26 -66 -5 -92 23 -29 49 -22 58 16 13 52 -19 98
-53 76z m42 -32 c9 -29 -4 -62 -23 -58 -18 3 -28 39 -18 64 8 21 34 17 41 -6z"/>
<path d="M1762 158 c-7 -7 -12 -29 -12 -49 0 -73 62 -78 68 -5 5 54 -26 84
-56 54z m46 -25 c2 -8 -6 -13 -22 -13 -25 0 -33 10 -19 24 10 10 36 3 41 -11z
m2 -38 c0 -21 -30 -31 -40 -14 -11 17 -3 29 21 29 10 0 19 -7 19 -15z"/>
<path d="M1842 113 c3 -55 4 -58 31 -61 15 -2 27 1 27 7 0 6 -9 11 -20 11 -22
0 -28 35 -7 43 10 4 10 6 0 6 -22 2 -14 31 7 31 11 0 20 5 20 10 0 6 -14 10
-30 10 l-31 0 3 -57z"/>
<path d="M1921 108 c1 -35 4 -51 6 -35 3 21 10 27 28 27 15 0 26 7 30 20 9 27
-11 50 -41 50 -23 0 -24 -3 -23 -62z m47 25 c-2 -10 -10 -18 -18 -18 -8 0 -16
8 -18 18 -2 12 3 17 18 17 15 0 20 -5 18 -17z"/>
<path d="M2016 123 c-19 -55 -22 -89 -5 -61 13 23 45 23 53 2 4 -9 9 -14 12
-11 7 7 -27 117 -37 117 -4 0 -14 -21 -23 -47z m34 -13 c0 -11 -4 -20 -10 -20
-5 0 -10 9 -10 20 0 11 5 20 10 20 6 0 10 -9 10 -20z"/>
<path d="M2097 163 c-11 -10 -8 -101 3 -108 6 -4 10 13 10 44 0 44 3 51 20 51
17 0 20 -7 20 -45 0 -25 5 -45 10 -45 6 0 10 25 10 55 l0 55 -33 0 c-19 0 -37
-3 -40 -7z"/>
<path d="M2190 110 l0 -60 30 0 c17 0 30 5 30 10 0 6 -11 10 -25 10 -29 0 -34
24 -7 39 16 10 16 10 0 11 -10 0 -18 7 -18 15 0 8 9 15 19 15 11 0 23 5 26 10
4 6 -7 10 -24 10 l-31 0 0 -60z"/>
<path d="M2273 110 c0 -36 2 -50 4 -32 2 17 2 47 0 65 -2 17 -4 3 -4 -33z"/>
<path d="M2315 118 c-17 -59 -19 -81 -4 -56 13 23 45 23 53 2 4 -9 9 -14 12
-11 7 7 -28 117 -37 117 -5 0 -15 -23 -24 -52z m35 -8 c0 -11 -4 -20 -10 -20
-5 0 -10 9 -10 20 0 11 5 20 10 20 6 0 10 -9 10 -20z"/>
<path d="M2390 163 c0 -5 7 -16 15 -27 12 -16 12 -22 0 -47 -20 -38 -20 -39
20 -39 19 0 35 5 35 10 0 6 -11 10 -25 10 -23 0 -24 2 -15 20 6 12 8 30 5 40
-5 16 -2 20 14 20 12 0 21 5 21 10 0 6 -16 10 -35 10 -19 0 -35 -3 -35 -7z"/>
<path d="M2525 160 c-11 -17 4 -45 35 -68 17 -13 36 -38 44 -57 9 -21 22 -35
32 -35 14 0 15 3 6 12 -7 7 -12 24 -12 39 0 26 -48 79 -71 79 -5 0 -9 9 -9 20
0 21 -15 27 -25 10z"/>
<path d="M3375 158 c-25 -69 -34 -102 -30 -106 2 -3 7 3 11 12 9 22 54 21 55
-1 0 -12 2 -14 6 -5 6 16 -16 100 -28 108 -5 3 -11 -1 -14 -8z m24 -60 c1 -5
-6 -8 -14 -8 -16 0 -19 9 -8 36 6 16 7 16 14 -2 4 -10 8 -22 8 -26z"/>
<path d="M3440 109 c0 -37 4 -58 10 -54 6 3 10 26 10 51 0 37 3 44 19 44 17 0
21 -8 24 -52 l3 -53 2 63 2 62 -35 0 -35 0 0 -61z"/>
<path d="M3541 151 c-26 -47 -2 -109 37 -97 26 9 38 49 26 85 -12 33 -48 40
-63 12z m47 -38 c-2 -27 -8 -39 -20 -41 -15 -3 -18 4 -18 37 0 35 3 41 21 41
17 0 20 -5 17 -37z"/>
<path d="M3632 110 c0 -60 1 -62 10 -30 l10 35 16 -32 c9 -18 19 -33 24 -33
11 0 10 7 -8 42 -13 25 -14 36 -5 51 20 31 4 32 -16 1 l-18 -28 -6 29 c-5 20
-7 8 -7 -35z"/>
<path d="M3727 113 c-15 -52 -16 -88 -1 -49 8 21 40 21 53 -1 9 -15 10 -15 11
-2 0 23 -31 109 -40 109 -4 0 -14 -26 -23 -57z m29 -20 c-11 -11 -19 6 -11 24
8 17 8 17 12 0 3 -10 2 -21 -1 -24z"/>
<path d="M3812 157 c10 -9 18 -32 21 -63 l3 -49 2 53 c2 39 6 52 17 52 8 0 15
5 15 10 0 6 -17 10 -37 10 -33 -1 -36 -2 -21 -13z"/>
<path d="M3896 114 c-10 -31 -15 -58 -12 -61 3 -3 8 2 12 11 8 21 40 21 53 -1
15 -26 13 -4 -4 55 -9 29 -19 52 -24 52 -4 0 -15 -25 -25 -56z m30 -22 c-12
-11 -18 7 -10 30 l8 23 4 -23 c2 -13 1 -26 -2 -30z"/>
<path d="M3980 158 c0 -7 4 -19 9 -27 6 -10 5 -24 -4 -42 -8 -14 -11 -29 -8
-33 10 -10 63 -7 63 4 0 6 -9 10 -20 10 -23 0 -24 4 -10 30 7 13 7 21 0 25
-17 10 -11 25 10 25 11 0 20 5 20 10 0 6 -13 10 -30 10 -17 0 -30 -5 -30 -12z"/>
<path d="M4062 157 c10 -9 18 -32 21 -63 l3 -49 2 53 c2 39 6 52 17 52 8 0 15
5 15 10 0 6 -17 10 -37 10 -33 -1 -36 -2 -21 -13z"/>
<path d="M4146 114 c-10 -31 -15 -58 -12 -61 3 -3 8 2 12 11 8 21 40 21 53 -1
9 -15 10 -15 11 -2 0 22 -31 109 -39 109 -4 0 -15 -25 -25 -56z m30 -22 c-12
-11 -18 7 -10 30 l8 23 4 -23 c2 -13 1 -26 -2 -30z"/>
<path d="M4230 158 c0 -7 4 -19 9 -27 6 -10 5 -24 -4 -42 -8 -14 -11 -29 -8
-33 10 -10 63 -7 63 4 0 6 -9 10 -20 10 -23 0 -24 4 -10 30 7 13 7 21 0 25
-17 10 -11 25 10 25 11 0 20 5 20 10 0 6 -13 10 -30 10 -17 0 -30 -5 -30 -12z"/>
<path d="M4310 110 c0 -38 4 -59 10 -55 6 3 10 17 10 31 0 37 33 27 41 -11 4
-20 7 -8 6 35 0 36 -2 53 -4 38 -5 -33 -43 -41 -43 -9 0 11 -4 23 -10 26 -6 4
-10 -17 -10 -55z"/>
<path d="M4400 157 c0 -7 5 -18 12 -25 9 -9 9 -18 0 -37 -7 -14 -12 -30 -12
-35 0 -13 57 -13 65 0 4 6 -5 10 -19 10 -28 0 -33 9 -15 27 8 8 8 17 0 32 -10
18 -9 21 9 21 11 0 20 5 20 10 0 6 -13 10 -30 10 -18 0 -30 -5 -30 -13z"/>
</g>
</svg>
