<?xml version="1.0" standalone="no"?>
<!DOCTYPE svg PUBLIC "-//W3C//DTD SVG 20010904//EN"
        "http://www.w3.org/TR/2001/REC-SVG-20010904/DTD/svg10.dtd">
<svg version="1.0" xmlns="http://www.w3.org/2000/svg"
     width="416.000000pt" height="302.000000pt" viewBox="0 0 416.000000 302.000000"
     preserveAspectRatio="xMidYMid meet">

    <g transform="translate(0.000000,302.000000) scale(0.100000,-0.100000)"
       fill="#000000" stroke="none">
        <path d="M2064 3007 c-2 -7 -3 -74 -2 -148 l3 -134 919 -3 919 -2 -6 -488 c-4
-268 -7 -722 -7 -1009 l0 -523 -348 0 c-192 0 -619 3 -950 7 l-602 6 0 364 0
363 -113 0 -114 0 -6 -97 c-4 -54 -7 -285 -7 -514 l0 -416 1181 -7 c650 -4
1185 -3 1190 1 4 4 9 591 11 1304 l3 1296 -404 6 c-222 4 -687 7 -1033 7 -507
0 -630 -3 -634 -13z"/>
        <path d="M6 2554 c-12 -31 -6 -907 7 -944 8 -23 25 -42 52 -57 40 -22 44 -23
412 -23 l373 0 -6 508 c-3 279 -7 513 -10 520 -3 9 -29 12 -106 10 l-103 -3
-6 -420 c-3 -231 -6 -421 -7 -422 -1 -2 -20 -3 -42 -3 -29 0 -42 5 -50 19 -6
13 -10 165 -10 425 l0 406 -105 0 -105 0 -2 -422 -3 -423 -30 0 -30 0 -6 420
c-3 231 -6 421 -7 423 -1 1 -49 2 -106 2 -85 0 -105 -3 -110 -16z"/>
        <path d="M886 2554 c-3 -9 -6 -243 -6 -520 l0 -504 108 0 109 0 7 207 c3 114
10 210 14 213 4 4 91 5 195 2 l187 -4 0 -203 c0 -161 3 -205 14 -214 9 -8 48
-11 112 -9 l99 3 3 518 2 517 -110 0 -110 0 0 -193 c0 -137 -3 -196 -12 -205
-13 -13 -149 -16 -296 -6 l-92 7 0 197 c0 171 -2 199 -16 204 -9 3 -58 6 -109
6 -75 0 -94 -3 -99 -16z"/>
        <path d="M1766 2538 c-3 -13 -4 -246 -3 -518 l2 -495 110 0 110 0 3 518 2 517
-110 0 c-106 0 -110 -1 -114 -22z"/>
        <path d="M2054 2547 c-3 -8 -4 -52 -2 -98 l3 -84 158 -3 157 -3 0 -420 0 -420
113 3 112 3 3 418 2 417 144 0 c165 0 156 -5 156 96 0 114 41 104 -431 104
-332 0 -411 -3 -415 -13z"/>
        <path d="M2937 2553 c-4 -3 -7 -237 -7 -520 l0 -513 425 0 426 0 -3 93 -3 92
-307 3 c-236 2 -308 5 -309 15 -6 55 5 213 15 219 6 4 93 8 194 8 l183 0 -3
98 -3 97 -195 5 -195 5 -3 88 c-2 57 1 94 9 103 9 11 67 14 316 14 l304 0 -3
98 -3 97 -416 3 c-228 1 -418 -1 -422 -5z"/>
        <path d="M2080 1121 l0 -331 214 0 c130 0 225 4 245 11 48 17 61 52 61 167 0
89 -2 100 -22 119 -13 11 -30 23 -38 25 -10 3 -6 10 16 21 41 21 44 31 44 142
0 170 1 169 -292 173 l-228 3 0 -330z m300 130 c0 -57 -6 -63 -49 -55 -30 6
-31 9 -31 55 l0 49 40 0 40 0 0 -49z m0 -261 l0 -50 -40 0 -40 0 0 50 0 50 40
0 40 0 0 -50z"/>
        <path d="M2741 1434 c-61 -26 -60 -23 -61 -320 l0 -271 24 -22 c32 -31 132
-44 286 -39 138 5 183 19 200 64 6 14 10 139 10 278 0 337 9 326 -270 326
-114 -1 -164 -5 -189 -16z m237 -316 l2 -178 -40 0 -40 0 0 181 0 180 38 -3
37 -3 3 -177z"/>
        <path d="M3280 1305 l0 -144 30 -23 30 -22 -29 -25 -30 -26 -3 -140 -3 -140
113 -3 112 -3 0 131 0 130 35 0 35 0 0 -130 0 -130 115 0 115 0 0 130 c0 140
-8 171 -49 190 l-26 12 27 14 c15 8 32 23 38 34 5 10 10 80 10 154 l0 136
-110 0 -109 0 -3 -127 -3 -128 -37 -3 -38 -3 0 130 0 131 -110 0 -110 0 0
-145z"/>
        <path d="M1764 237 c-2 -7 -3 -60 -2 -118 l3 -104 87 -3 c79 -3 88 -1 98 18
15 28 9 64 -12 68 -11 2 -18 -5 -20 -20 -3 -21 -9 -23 -60 -26 l-58 -3 0 81 0
81 58 -3 c50 -3 57 -6 60 -24 2 -16 8 -20 23 -17 22 6 27 51 7 71 -17 17 -177
16 -184 -1z"/>
        <path d="M2100 130 c0 -113 1 -120 20 -120 17 0 20 7 20 45 0 39 3 45 21 45
13 0 38 -18 61 -45 27 -31 48 -45 65 -45 24 0 24 0 -12 44 l-36 45 28 3 c27 3
28 6 31 61 4 82 -2 87 -109 87 l-89 0 0 -120z m158 43 l3 -33 -60 0 -61 0 0
35 0 36 58 -3 c56 -3 57 -3 60 -35z"/>
        <path d="M2451 236 c-8 -9 -11 -50 -9 -117 l3 -104 100 -3 c124 -3 125 -2 125
119 0 115 -4 119 -119 119 -64 0 -92 -4 -100 -14z m174 -106 l0 -75 -72 -3
-73 -3 0 74 c0 40 3 77 7 81 4 4 37 6 73 4 l65 -3 0 -75z"/>
        <path d="M2834 242 c-16 -10 -24 -65 -15 -98 7 -28 10 -29 82 -34 72 -5 74 -6
77 -32 l3 -28 -70 0 c-56 0 -71 3 -71 15 0 9 -6 12 -16 8 -9 -3 -14 -15 -12
-32 3 -25 7 -26 77 -35 50 -5 81 -5 98 3 22 10 24 16 21 74 l-3 62 -78 3 -78
3 3 27 c3 25 6 27 61 30 47 2 57 0 57 -13 0 -23 34 -15 38 9 6 31 -26 46 -97
46 -36 0 -71 -4 -77 -8z"/>
        <path d="M3180 238 c-17 -6 -20 -16 -20 -63 0 -50 2 -56 26 -65 14 -6 50 -10
80 -10 51 0 54 -1 54 -25 0 -24 -2 -25 -65 -25 -49 0 -65 3 -65 14 0 9 -7 12
-20 9 -24 -6 -26 -35 -4 -57 22 -22 156 -22 178 0 19 19 22 104 4 122 -7 7
-40 12 -80 12 -66 0 -68 1 -68 25 0 24 3 25 59 25 37 0 61 -5 63 -12 3 -7 12
-9 22 -5 13 5 16 13 10 29 -3 13 -7 24 -8 24 -5 6 -150 8 -166 2z"/>
        <path d="M3500 120 c0 -113 1 -120 20 -120 17 0 20 7 20 45 l0 45 40 0 c36 0
40 3 40 25 0 23 -4 25 -40 25 -38 0 -40 2 -40 30 l0 30 75 0 c68 0 75 2 75 20
0 19 -7 20 -95 20 l-95 0 0 -120z"/>
        <path d="M3800 120 c0 -113 1 -120 20 -120 19 0 20 7 20 120 0 113 -1 120 -20
120 -19 0 -20 -7 -20 -120z"/>
        <path d="M3950 220 c0 -17 7 -20 40 -20 l40 0 0 -100 c0 -93 1 -100 20 -100
19 0 20 7 20 100 l0 100 45 0 c38 0 45 3 45 20 0 19 -7 20 -105 20 -98 0 -105
-1 -105 -20z"/>
    </g>
</svg>
